<?xml version="1.0" encoding="utf-8"?>
<svg viewBox="0 0 659.884 230.233" xmlns="http://www.w3.org/2000/svg">
  <g transform="matrix(1, 0, 0, 1, -66.12626, -190.883731)">
    <g>
      <path class="st0" d="M181.22,220.8c8.14,0,14.74-6.6,14.74-14.74c0-8.14-6.6-14.74-14.74-14.74c-8.14,0-14.75,6.6-14.75,14.74 C166.47,214.2,173.08,220.8,181.22,220.8" style="fill: rgb(61, 88, 118);"/>
      <path class="st0" d="M181.22,391.2c-8.14,0-14.75,6.6-14.75,14.74c0,8.15,6.6,14.74,14.75,14.74c8.14,0,14.74-6.6,14.74-14.74 C195.96,397.8,189.36,391.2,181.22,391.2" style="fill: rgb(61, 88, 118);"/>
      <path class="st0" d="M281.16,291.25c-8.14,0-14.74,6.6-14.74,14.75c0,8.14,6.6,14.74,14.74,14.74c8.14,0,14.74-6.6,14.74-14.74 C295.91,297.86,289.3,291.25,281.16,291.25" style="fill: rgb(61, 88, 118);"/>
      <path class="st0" d="M96.02,306c0-8.14-6.6-14.74-14.75-14.74s-14.74,6.6-14.74,14.74c0,8.14,6.6,14.75,14.74,14.75 S96.02,314.14,96.02,306" style="fill: rgb(61, 88, 118);"/>
      <path class="st0" d="M249.69,306L249.69,306c13.4-8.86,22.27-24.05,22.27-41.28c0-8.15-2.01-15.83-5.53-22.62l-0.03,0.01 c-0.6-1.27-1.87-2.16-3.36-2.16c-2.07,0-3.74,1.67-3.74,3.74c0,0.3,0.1,0.58,0.18,0.86l-0.09,0.03c1.81,9.5,0.6,21.14-7.2,34.64 c-5.39,10.98-16.66,18.58-29.69,18.58h-33.08v-33.09c0-18.24,14.84-33.08,33.08-33.08c10.98,0,20.7,5.4,26.71,13.66l0.06-0.08 c0.68,0.95,1.74,1.61,2.99,1.61c2.07,0,3.74-1.67,3.74-3.74c0-0.31-0.1-0.58-0.18-0.87l0.06-0.03c-0.05-0.19-0.13-0.35-0.18-0.53 c0-0.01-0.01-0.03-0.01-0.04c-1.77-6.24-4.86-11.34-7.94-15.15c-0.28-0.31-0.55-0.62-0.89-1.01c-5.94-6.84-15.11-9.16-18.78-9.84 c-1.84-0.22-3.7-0.37-5.6-0.37c-17.23,0-32.42,8.87-41.28,22.27c-8.86-13.41-24.05-22.27-41.28-22.27c-1.9,0-3.76,0.15-5.6,0.37 c-3.66,0.68-12.83,3-18.77,9.84c-0.34,0.39-0.61,0.7-0.89,1.01c-3.08,3.81-6.17,8.91-7.94,15.15c0,0.02-0.01,0.03-0.01,0.04 c-0.05,0.18-0.13,0.34-0.18,0.53l0.06,0.03c-0.07,0.28-0.18,0.56-0.18,0.87c0,2.07,1.67,3.74,3.74,3.74 c1.26,0,2.31-0.66,2.99-1.61l0.06,0.08c6.01-8.27,15.73-13.66,26.71-13.66c18.24,0,33.09,14.84,33.09,33.08v33.09h-33.09 c-13.04,0-24.31-7.6-29.69-18.58c-7.8-13.5-9.01-25.13-7.2-34.64l-0.09-0.03c0.07-0.28,0.17-0.55,0.17-0.86 c0-2.07-1.67-3.74-3.74-3.74c-1.49,0-2.76,0.89-3.36,2.16L96,242.1c-3.51,6.78-5.53,14.46-5.53,22.62 c0,17.23,8.87,32.42,22.27,41.28c-13.4,8.86-22.27,24.04-22.27,41.28c0,8.16,2.01,15.84,5.53,22.62l0.03-0.01 c0.6,1.27,1.87,2.16,3.36,2.16c2.07,0,3.74-1.67,3.74-3.74c0-0.3-0.1-0.58-0.17-0.86l0.09-0.03c-1.81-9.5-0.6-21.14,7.2-34.64 c5.39-10.98,16.66-18.58,29.69-18.58h33.09v33.08c0,18.25-14.84,33.09-33.09,33.09c-10.98,0-20.7-5.4-26.71-13.66l-0.06,0.08 c-0.68-0.95-1.73-1.61-2.99-1.61c-2.07,0-3.74,1.68-3.74,3.74c0,0.31,0.1,0.58,0.18,0.87l-0.06,0.03 c0.05,0.18,0.13,0.35,0.18,0.53c0,0.01,0.01,0.03,0.01,0.04c1.77,6.24,4.86,11.34,7.94,15.15c0.28,0.32,0.55,0.63,0.89,1.01 c5.94,6.84,15.11,9.16,18.77,9.84c1.84,0.22,3.7,0.37,5.6,0.37c17.23,0,32.42-8.87,41.28-22.27c8.86,13.4,24.04,22.27,41.28,22.27 c1.9,0,3.76-0.15,5.6-0.37c3.67-0.68,12.83-3,18.78-9.84c0.34-0.39,0.61-0.7,0.89-1.01c3.08-3.81,6.17-8.91,7.94-15.15 c0-0.02,0.01-0.03,0.01-0.04c0.05-0.18,0.13-0.35,0.18-0.53l-0.06-0.03c0.07-0.29,0.18-0.56,0.18-0.87c0-2.07-1.67-3.74-3.74-3.74 c-1.26,0-2.32,0.66-2.99,1.61l-0.06-0.08c-6.01,8.26-15.73,13.66-26.71,13.66c-18.24,0-33.08-14.84-33.08-33.09v-33.08h33.08 c13.04,0,24.31,7.6,29.69,18.58c7.8,13.49,9.01,25.13,7.2,34.64l0.09,0.03c-0.07,0.28-0.18,0.56-0.18,0.86 c0,2.07,1.67,3.74,3.74,3.74c1.49,0,2.76-0.89,3.36-2.16l0.03,0.01c3.52-6.78,5.53-14.46,5.53-22.62 C271.96,330.04,263.09,314.86,249.69,306" style="fill: rgb(61, 88, 118);"/>
    </g>
    <g>
      <path class="st0" d="M351.92,326.09c0.95,1.43,2.17,2.48,3.64,3.16c1.48,0.67,3,1.01,4.58,1.01c0.88,0,1.77-0.14,2.69-0.41 c0.91-0.28,1.74-0.68,2.49-1.23c0.75-0.55,1.36-1.23,1.84-2.03c0.47-0.8,0.71-1.73,0.71-2.8c0-1.49-0.48-2.64-1.42-3.42 c-0.95-0.78-2.13-1.44-3.53-1.97c-1.41-0.53-2.94-1.04-4.6-1.54c-1.67-0.49-3.2-1.18-4.61-2.05c-1.41-0.88-2.58-2.06-3.53-3.53 c-0.95-1.48-1.43-3.48-1.43-6.01c0-1.13,0.25-2.34,0.74-3.61c0.49-1.28,1.27-2.45,2.33-3.51c1.06-1.06,2.42-1.94,4.08-2.66 c1.67-0.71,3.66-1.07,6.01-1.07c2.12,0,4.14,0.29,6.08,0.88c1.94,0.58,3.64,1.77,5.1,3.56l-4.27,3.89 c-0.66-1.02-1.59-1.84-2.8-2.47c-1.21-0.62-2.58-0.93-4.11-0.93c-1.46,0-2.68,0.19-3.65,0.58c-0.97,0.38-1.74,0.88-2.33,1.48 c-0.58,0.6-1,1.25-1.24,1.94c-0.24,0.69-0.35,1.34-0.35,1.92c0,1.64,0.48,2.91,1.43,3.79c0.95,0.88,2.13,1.59,3.53,2.14 c1.4,0.55,2.94,1.04,4.6,1.48c1.66,0.44,3.2,1.05,4.6,1.83c1.41,0.79,2.58,1.84,3.53,3.18c0.95,1.34,1.43,3.17,1.43,5.51 c0,1.87-0.35,3.54-1.07,5.04c-0.71,1.5-1.67,2.76-2.88,3.79c-1.21,1.02-2.63,1.81-4.27,2.36c-1.64,0.55-3.4,0.82-5.26,0.82 c-2.49,0-4.84-0.44-7.07-1.31c-2.23-0.88-4-2.23-5.32-4.05L351.92,326.09z" style="fill: rgb(61, 88, 118);"/>
      <path class="st0" d="M404.37,295.39h4.77l16.61,38.81h-6.14l-3.89-9.59h-18.47l-3.84,9.59h-6.14L404.37,295.39z M413.8,320 l-7.23-17.81h-0.11L399.11,320H413.8z" style="fill: rgb(61, 88, 118);"/>
      <polygon class="st0" points="441.76,295.39 448.66,295.39 470.04,327.3 470.15,327.3 470.15,295.39 475.41,295.39 475.41,334.2 &#10;&#9;&#9;&#9;468.73,334.2 447.13,302.3 447.02,302.3 447.02,334.2 441.76,334.2 &#9;&#9;" style="fill: rgb(61, 88, 118);"/>
      <path class="st0" d="M510.71,295.39h13.54c2.74,0,5.15,0.31,7.21,0.93c2.07,0.62,3.86,1.45,5.37,2.49 c1.52,1.04,2.78,2.24,3.79,3.59c1,1.35,1.8,2.74,2.38,4.17c0.58,1.43,1.01,2.85,1.26,4.28c0.25,1.42,0.38,2.74,0.38,3.95 c0,2.48-0.46,4.89-1.37,7.2c-0.91,2.32-2.27,4.39-4.06,6.19c-1.79,1.81-4.01,3.26-6.66,4.36c-2.65,1.1-5.71,1.64-9.18,1.64h-12.66 V295.39z M515.97,329.27h6.63c2.23,0,4.34-0.3,6.33-0.91c1.99-0.61,3.74-1.51,5.24-2.71c1.49-1.21,2.68-2.71,3.56-4.52 c0.88-1.81,1.31-3.91,1.31-6.33c0-1.24-0.2-2.7-0.6-4.36c-0.4-1.66-1.16-3.24-2.27-4.74c-1.11-1.5-2.66-2.77-4.63-3.81 c-1.97-1.04-4.53-1.56-7.67-1.56h-7.89V329.27z" style="fill: rgb(61, 88, 118);"/>
      <rect x="563.17" y="295.39" class="st0" width="5.26" height="38.81" style="fill: rgb(61, 88, 118);"/>
      <polygon class="st0" points="589.37,295.39 614.42,295.39 614.42,300.33 594.63,300.33 594.63,311.89 613.05,311.89 &#10;&#9;&#9;&#9;613.05,316.83 594.63,316.83 594.63,329.27 615.4,329.27 615.4,334.2 589.37,334.2 &#9;&#9;" style="fill: rgb(61, 88, 118);"/>
      <path class="st0" d="M666.88,312.5v19.13c-0.95,0.58-2.03,1.09-3.23,1.53c-1.21,0.44-2.46,0.82-3.76,1.13 c-1.3,0.31-2.61,0.54-3.94,0.68c-1.34,0.15-2.59,0.22-3.76,0.22c-3.29,0-6.22-0.55-8.8-1.64c-2.58-1.1-4.75-2.58-6.52-4.44 c-1.77-1.87-3.12-4.03-4.06-6.5c-0.93-2.47-1.39-5.07-1.39-7.81c0-2.89,0.5-5.57,1.5-8.06c1.01-2.48,2.4-4.64,4.17-6.47 c1.77-1.82,3.9-3.26,6.39-4.3c2.48-1.04,5.2-1.56,8.17-1.56c3.58,0,6.5,0.45,8.77,1.34c2.27,0.89,4.17,2.13,5.7,3.7l-3.73,4 c-1.61-1.54-3.31-2.6-5.1-3.21c-1.79-0.6-3.67-0.91-5.65-0.91c-2.23,0-4.24,0.41-6.03,1.23c-1.79,0.83-3.33,1.93-4.6,3.32 c-1.28,1.39-2.27,3.03-2.96,4.91c-0.7,1.88-1.04,3.88-1.04,6c0,2.19,0.38,4.23,1.15,6.11c0.77,1.88,1.82,3.52,3.18,4.91 c1.35,1.39,2.94,2.47,4.77,3.26c1.83,0.79,3.82,1.18,5.98,1.18c1.86,0,3.62-0.18,5.29-0.52c1.66-0.35,3.08-0.85,4.25-1.51v-10.8 h-8.61v-4.93H666.88z" style="fill: rgb(61, 88, 118);"/>
      <path class="st0" d="M705.25,335.19c-2.96,0-5.68-0.52-8.17-1.57c-2.49-1.04-4.61-2.47-6.39-4.3c-1.77-1.82-3.16-3.98-4.17-6.46 c-1.01-2.49-1.51-5.17-1.51-8.06c0-2.89,0.5-5.57,1.51-8.06c1-2.48,2.39-4.64,4.17-6.46c1.77-1.83,3.9-3.26,6.39-4.3 c2.48-1.04,5.2-1.57,8.17-1.57c2.96,0,5.68,0.52,8.17,1.57c2.48,1.04,4.61,2.47,6.39,4.3c1.77,1.83,3.16,3.98,4.17,6.46 c1,2.49,1.51,5.17,1.51,8.06c0,2.89-0.5,5.57-1.51,8.06c-1.01,2.48-2.4,4.64-4.17,6.46c-1.77,1.83-3.9,3.26-6.39,4.3 C710.93,334.67,708.2,335.19,705.25,335.19 M705.25,330.26c2.23,0,4.24-0.41,6.03-1.24c1.79-0.82,3.33-1.92,4.6-3.31 c1.28-1.39,2.27-3.03,2.96-4.91c0.69-1.88,1.04-3.88,1.04-6s-0.35-4.12-1.04-6c-0.7-1.88-1.68-3.52-2.96-4.91 c-1.28-1.39-2.81-2.49-4.6-3.31c-1.79-0.82-3.8-1.24-6.03-1.24c-2.23,0-4.24,0.41-6.03,1.24c-1.79,0.82-3.33,1.93-4.6,3.31 c-1.28,1.39-2.27,3.03-2.96,4.91c-0.7,1.88-1.04,3.88-1.04,6s0.35,4.12,1.04,6c0.69,1.88,1.68,3.52,2.96,4.91 c1.28,1.39,2.81,2.49,4.6,3.31C701.01,329.84,703.02,330.26,705.25,330.26" style="fill: rgb(61, 88, 118);"/>
      <polygon class="st0" points="347.59,229.66 352.85,229.66 352.85,245.78 372.97,245.78 372.97,229.66 378.23,229.66 &#10;&#9;&#9;&#9;378.23,268.47 372.97,268.47 372.97,250.71 352.85,250.71 352.85,268.47 347.59,268.47 &#9;&#9;" style="fill: rgb(61, 88, 118);"/>
      <path class="st0" d="M416.98,269.46c-2.96,0-5.68-0.52-8.17-1.57c-2.49-1.04-4.61-2.47-6.39-4.3c-1.77-1.82-3.16-3.98-4.17-6.46 c-1.01-2.48-1.51-5.17-1.51-8.06c0-2.89,0.5-5.57,1.51-8.06c1-2.48,2.39-4.64,4.17-6.46c1.77-1.83,3.9-3.26,6.39-4.3 c2.48-1.04,5.2-1.57,8.17-1.57c2.96,0,5.68,0.52,8.17,1.57c2.48,1.04,4.61,2.47,6.39,4.3c1.77,1.83,3.16,3.98,4.17,6.46 c1,2.49,1.51,5.17,1.51,8.06c0,2.89-0.5,5.58-1.51,8.06c-1.01,2.48-2.4,4.64-4.17,6.46c-1.77,1.83-3.9,3.26-6.39,4.3 C422.66,268.94,419.94,269.46,416.98,269.46 M416.98,264.52c2.23,0,4.24-0.41,6.03-1.24c1.79-0.82,3.33-1.92,4.6-3.31 c1.28-1.39,2.27-3.03,2.96-4.91c0.69-1.88,1.04-3.88,1.04-6s-0.35-4.12-1.04-6c-0.7-1.88-1.68-3.52-2.96-4.91 c-1.28-1.39-2.81-2.49-4.6-3.31c-1.79-0.82-3.8-1.24-6.03-1.24c-2.23,0-4.24,0.41-6.03,1.24c-1.79,0.82-3.32,1.93-4.6,3.31 c-1.28,1.39-2.27,3.03-2.96,4.91c-0.7,1.88-1.04,3.88-1.04,6s0.35,4.12,1.04,6c0.69,1.88,1.68,3.52,2.96,4.91 c1.28,1.39,2.81,2.49,4.6,3.31C412.74,264.11,414.75,264.52,416.98,264.52" style="fill: rgb(61, 88, 118);"/>
      <path class="st0" d="M456.89,260.36c0.95,1.43,2.17,2.48,3.64,3.16c1.48,0.67,3,1.01,4.58,1.01c0.88,0,1.77-0.14,2.69-0.41 c0.91-0.28,1.74-0.68,2.49-1.23c0.75-0.55,1.36-1.23,1.84-2.03c0.47-0.8,0.71-1.73,0.71-2.8c0-1.49-0.48-2.64-1.42-3.42 c-0.95-0.78-2.13-1.44-3.53-1.97c-1.41-0.53-2.94-1.04-4.6-1.54c-1.67-0.49-3.2-1.18-4.61-2.05c-1.41-0.88-2.58-2.06-3.53-3.53 c-0.95-1.48-1.43-3.48-1.43-6c0-1.14,0.25-2.34,0.74-3.62c0.49-1.28,1.27-2.45,2.33-3.51c1.06-1.06,2.42-1.94,4.08-2.66 c1.67-0.71,3.66-1.07,6.01-1.07c2.12,0,4.14,0.29,6.08,0.88c1.94,0.58,3.64,1.77,5.1,3.56l-4.27,3.89 c-0.66-1.02-1.59-1.84-2.8-2.47c-1.21-0.62-2.58-0.93-4.11-0.93c-1.46,0-2.68,0.19-3.65,0.58c-0.97,0.38-1.74,0.88-2.33,1.48 c-0.58,0.6-1,1.25-1.24,1.94c-0.24,0.69-0.35,1.34-0.35,1.92c0,1.64,0.48,2.9,1.43,3.78c0.95,0.88,2.13,1.59,3.53,2.14 c1.4,0.55,2.94,1.04,4.6,1.48c1.66,0.44,3.2,1.05,4.6,1.83c1.41,0.79,2.58,1.84,3.53,3.18c0.95,1.33,1.43,3.17,1.43,5.5 c0,1.87-0.35,3.54-1.07,5.04c-0.71,1.5-1.67,2.76-2.88,3.79c-1.21,1.02-2.63,1.81-4.27,2.36c-1.64,0.55-3.4,0.82-5.26,0.82 c-2.49,0-4.84-0.44-7.07-1.31c-2.23-0.88-4-2.23-5.32-4.05L456.89,260.36z" style="fill: rgb(61, 88, 118);"/>
      <path class="st0" d="M497.17,229.66h13.65c2.49,0,4.53,0.34,6.14,1.02c1.61,0.67,2.88,1.53,3.81,2.57 c0.93,1.04,1.58,2.21,1.95,3.51c0.36,1.3,0.55,2.55,0.55,3.76s-0.18,2.46-0.55,3.76c-0.37,1.3-1.01,2.47-1.95,3.51 c-0.93,1.04-2.2,1.9-3.81,2.58c-1.61,0.67-3.66,1.01-6.14,1.01h-8.38v17.1h-5.26V229.66z M502.44,246.76h6.91 c1.02,0,2.04-0.08,3.04-0.25c1-0.16,1.9-0.46,2.69-0.9c0.78-0.44,1.41-1.07,1.89-1.89c0.47-0.82,0.71-1.89,0.71-3.21 c0-1.31-0.24-2.38-0.71-3.21c-0.48-0.83-1.11-1.45-1.89-1.89c-0.79-0.44-1.69-0.74-2.69-0.9c-1.01-0.16-2.02-0.25-3.04-0.25h-6.91 V246.76z" style="fill: rgb(61, 88, 118);"/>
      <rect x="540.64" y="229.66" class="st0" width="5.26" height="38.81" style="fill: rgb(61, 88, 118);"/>
      <polygon class="st0" points="574.95,234.6 562.46,234.6 562.46,229.66 592.71,229.66 592.71,234.6 580.21,234.6 580.21,268.47 &#10;&#9;&#9;&#9;574.95,268.47 &#9;&#9;" style="fill: rgb(61, 88, 118);"/>
      <path class="st0" d="M616.39,229.66h4.77l16.61,38.81h-6.14l-3.89-9.59h-18.47l-3.84,9.59h-6.14L616.39,229.66z M625.82,254.27 l-7.23-17.81h-0.11l-7.35,17.81H625.82z" style="fill: rgb(61, 88, 118);"/>
      <polygon class="st0" points="653.77,229.66 659.04,229.66 659.04,263.54 676.85,263.54 676.85,268.47 653.77,268.47 &#9;&#9;" style="fill: rgb(61, 88, 118);"/>
      <g>
        <path class="st0" d="M351.6,365.68h5.71c1.07,0,2.14,0.18,3.22,0.53c1.08,0.36,2.05,0.9,2.92,1.62c0.87,0.72,1.57,1.62,2.1,2.7 c0.53,1.08,0.8,2.33,0.8,3.76c0,1.44-0.27,2.7-0.8,3.77c-0.53,1.07-1.24,1.97-2.1,2.69c-0.87,0.72-1.84,1.26-2.92,1.62 c-1.08,0.36-2.15,0.53-3.22,0.53h-5.71V365.68z M353.35,381.28h3.4c1.31,0,2.45-0.2,3.41-0.6c0.96-0.4,1.77-0.92,2.41-1.58 c0.64-0.66,1.11-1.4,1.42-2.24c0.31-0.83,0.46-1.7,0.46-2.59c0-0.89-0.15-1.75-0.46-2.59c-0.31-0.83-0.78-1.58-1.42-2.24 c-0.64-0.66-1.44-1.18-2.41-1.58c-0.96-0.4-2.1-0.6-3.41-0.6h-3.4V381.28z" style="fill: rgb(61, 88, 118);"/>
        <path class="st0" d="M402,381.28h9.21v1.6h-10.96v-17.21h10.67v1.6H402v5.86h8.34v1.6H402V381.28z" style="fill: rgb(61, 88, 118);"/>
        <path class="st0" d="M481.9,382.89h-2.04l7.49-17.21h1.7l7.49,17.21h-2.04l-1.9-4.52h-8.8L481.9,382.89z M484.46,376.76h7.46 l-3.72-9.04L484.46,376.76z" style="fill: rgb(61, 88, 118);"/>
        <path class="st0" d="M531.01,381.28h8.02v1.6h-9.77v-17.21h1.75V381.28z" style="fill: rgb(61, 88, 118);"/>
        <path class="st0" d="M585.97,380.17c-0.29,0.44-0.65,0.85-1.08,1.24c-0.43,0.39-0.92,0.73-1.47,1.01 c-0.55,0.28-1.15,0.51-1.79,0.67c-0.64,0.16-1.32,0.24-2.03,0.24c-1.28,0-2.47-0.23-3.56-0.68c-1.09-0.45-2.04-1.08-2.85-1.88 c-0.8-0.8-1.43-1.75-1.88-2.86c-0.45-1.1-0.68-2.31-0.68-3.62c0-1.31,0.23-2.52,0.68-3.62c0.45-1.1,1.08-2.05,1.88-2.86 c0.8-0.8,1.75-1.43,2.85-1.88c1.09-0.45,2.28-0.68,3.56-0.68c1.07,0,2.14,0.21,3.21,0.63c1.07,0.42,1.99,1.12,2.75,2.09 l-1.53,1.14c-0.18-0.27-0.42-0.55-0.73-0.83c-0.31-0.27-0.66-0.52-1.06-0.73c-0.4-0.21-0.82-0.38-1.28-0.51 c-0.45-0.13-0.91-0.19-1.36-0.19c-1.1,0-2.09,0.2-2.97,0.61c-0.88,0.41-1.62,0.95-2.23,1.63c-0.61,0.68-1.07,1.47-1.4,2.37 c-0.32,0.9-0.49,1.84-0.49,2.83s0.16,1.93,0.49,2.83c0.32,0.9,0.79,1.69,1.4,2.37c0.61,0.68,1.35,1.22,2.23,1.63 c0.87,0.4,1.86,0.61,2.97,0.61c0.45,0,0.9-0.04,1.35-0.12c0.45-0.08,0.88-0.22,1.31-0.41c0.43-0.19,0.83-0.46,1.21-0.79 c0.38-0.33,0.73-0.75,1.06-1.25L585.97,380.17z" style="fill: rgb(61, 88, 118);"/>
        <path class="st0" d="M619.01,382.89h-2.04l7.49-17.21h1.7l7.49,17.21h-2.04l-1.9-4.52h-8.8L619.01,382.89z M621.56,376.76h7.46 l-3.72-9.04L621.56,376.76z" style="fill: rgb(61, 88, 118);"/>
        <path class="st0" d="M668.12,381.28h8.02v1.6h-9.77v-17.21h1.75V381.28z" style="fill: rgb(61, 88, 118);"/>
        <path class="st0" d="M708.62,382.89h-2.04l7.49-17.21h1.7l7.49,17.21h-2.04l-1.9-4.52h-8.8L708.62,382.89z M711.17,376.76h7.46 l-3.72-9.04L711.17,376.76z M714.86,364.92h-1.43l2.43-3.5h2.21L714.86,364.92z" style="fill: rgb(61, 88, 118);"/>
      </g>
    </g>
  </g>
</svg>